<?xml version="1.0" encoding="UTF-8" standalone="no"?>
<!DOCTYPE svg PUBLIC "-//W3C//DTD SVG 1.1//EN"
 "http://www.w3.org/Graphics/SVG/1.1/DTD/svg11.dtd">
<!-- Generated by graphviz version 2.38.0 (20140413.2041)
 -->
<!-- Title: controllers_diagram Pages: 1 -->
<svg width="507pt" height="489pt"
 viewBox="0.00 0.00 507.37 489.00" xmlns="http://www.w3.org/2000/svg" xmlns:xlink="http://www.w3.org/1999/xlink">
<g id="graph0" class="graph" transform="scale(1 1) rotate(0) translate(183.548 275.5)">
<title>controllers_diagram</title>
<polygon fill="none" stroke="none" points="-183.548,213.5 -183.548,-275.5 323.821,-275.5 323.821,213.5 -183.548,213.5"/>
<!-- _diagram_info -->
<g id="node1" class="node"><title>_diagram_info</title>
<text text-anchor="start" x="83.3123" y="-134.1" font-family="Times,serif" font-size="13.00">Controllers diagram</text>
<text text-anchor="start" x="83.3123" y="-121.1" font-family="Times,serif" font-size="13.00">Date: Apr 08 2016 &#45; 14:21</text>
<text text-anchor="start" x="83.3123" y="-108.1" font-family="Times,serif" font-size="13.00">Migration version: 20160408181612</text>
<text text-anchor="start" x="83.3123" y="-95.1" font-family="Times,serif" font-size="13.00">Generated by RailRoady 1.4.1</text>
<text text-anchor="start" x="83.3123" y="-82.1" font-family="Times,serif" font-size="13.00">http://railroady.prestonlee.com</text>
</g>
<!-- ApplicationController -->
<g id="node2" class="node"><title>ApplicationController</title>
<path fill="none" stroke="black" d="M-77.8208,-91C-77.8208,-91 37.8208,-91 37.8208,-91 43.8208,-91 49.8208,-97 49.8208,-103 49.8208,-103 49.8208,-171 49.8208,-171 49.8208,-177 43.8208,-183 37.8208,-183 37.8208,-183 -77.8208,-183 -77.8208,-183 -83.8208,-183 -89.8208,-177 -89.8208,-171 -89.8208,-171 -89.8208,-103 -89.8208,-103 -89.8208,-97 -83.8208,-91 -77.8208,-91"/>
<text text-anchor="middle" x="-20" y="-167.8" font-family="Times,serif" font-size="14.00">ApplicationController</text>
<polyline fill="none" stroke="black" points="-89.8208,-161 49.8208,-161 "/>
<polyline fill="none" stroke="black" points="-89.8208,-137 49.8208,-137 "/>
<polyline fill="none" stroke="black" points="-89.8208,-113 49.8208,-113 "/>
<text text-anchor="start" x="-81.8208" y="-97.8" font-family="Times,serif" font-size="14.00">_layout</text>
</g>
<!-- DashboardsController -->
<g id="node3" class="node"><title>DashboardsController</title>
<path fill="none" stroke="black" d="M192.179,-181C192.179,-181 307.821,-181 307.821,-181 313.821,-181 319.821,-187 319.821,-193 319.821,-193 319.821,-259 319.821,-259 319.821,-265 313.821,-271 307.821,-271 307.821,-271 192.179,-271 192.179,-271 186.179,-271 180.179,-265 180.179,-259 180.179,-259 180.179,-193 180.179,-193 180.179,-187 186.179,-181 192.179,-181"/>
<text text-anchor="middle" x="250" y="-255.8" font-family="Times,serif" font-size="14.00">DashboardsController</text>
<polyline fill="none" stroke="black" points="180.179,-249 319.821,-249 "/>
<text text-anchor="start" x="188.179" y="-233.8" font-family="Times,serif" font-size="14.00">index</text>
<polyline fill="none" stroke="black" points="180.179,-227 319.821,-227 "/>
<polyline fill="none" stroke="black" points="180.179,-203 319.821,-203 "/>
<text text-anchor="start" x="188.179" y="-187.8" font-family="Times,serif" font-size="14.00">_layout</text>
</g>
<!-- FindingAidVersionsController -->
<g id="node4" class="node"><title>FindingAidVersionsController</title>
<path fill="none" stroke="black" d="M-93.1655,59C-93.1655,59 69.1655,59 69.1655,59 75.1655,59 81.1655,53 81.1655,47 81.1655,47 81.1655,-33 81.1655,-33 81.1655,-39 75.1655,-45 69.1655,-45 69.1655,-45 -93.1655,-45 -93.1655,-45 -99.1655,-45 -105.166,-39 -105.166,-33 -105.166,-33 -105.166,47 -105.166,47 -105.166,53 -99.1655,59 -93.1655,59"/>
<text text-anchor="middle" x="-12" y="-29.8" font-family="Times,serif" font-size="14.00">FindingAidVersionsController</text>
<polyline fill="none" stroke="black" points="-105.166,-23 81.1655,-23 "/>
<text text-anchor="start" x="-97.1655" y="-7.8" font-family="Times,serif" font-size="14.00">finding_aid_version_params</text>
<text text-anchor="start" x="-97.1655" y="6.2" font-family="Times,serif" font-size="14.00">show</text>
<polyline fill="none" stroke="black" points="-105.166,13 81.1655,13 "/>
<polyline fill="none" stroke="black" points="-105.166,37 81.1655,37 "/>
<text text-anchor="start" x="-97.1655" y="52.2" font-family="Times,serif" font-size="14.00">_layout</text>
</g>
<!-- FindingAidsController -->
<g id="node5" class="node"><title>FindingAidsController</title>
<path fill="none" stroke="black" d="M117.221,104C117.221,104 236.779,104 236.779,104 242.779,104 248.779,98 248.779,92 248.779,92 248.779,-2 248.779,-2 248.779,-8 242.779,-14 236.779,-14 236.779,-14 117.221,-14 117.221,-14 111.221,-14 105.221,-8 105.221,-2 105.221,-2 105.221,92 105.221,92 105.221,98 111.221,104 117.221,104"/>
<text text-anchor="middle" x="177" y="1.2" font-family="Times,serif" font-size="14.00">FindingAidsController</text>
<polyline fill="none" stroke="black" points="105.221,8 248.779,8 "/>
<text text-anchor="start" x="113.221" y="23.2" font-family="Times,serif" font-size="14.00">finding_aid_params</text>
<text text-anchor="start" x="113.221" y="37.2" font-family="Times,serif" font-size="14.00">index</text>
<text text-anchor="start" x="113.221" y="51.2" font-family="Times,serif" font-size="14.00">show</text>
<polyline fill="none" stroke="black" points="105.221,58 248.779,58 "/>
<polyline fill="none" stroke="black" points="105.221,82 248.779,82 "/>
<text text-anchor="start" x="113.221" y="97.2" font-family="Times,serif" font-size="14.00">_layout</text>
</g>
<!-- ReportsController -->
<g id="node6" class="node"><title>ReportsController</title>
<path fill="none" stroke="black" d="M-167.548,179C-167.548,179 -74.4517,179 -74.4517,179 -68.4517,179 -62.4517,173 -62.4517,167 -62.4517,167 -62.4517,101 -62.4517,101 -62.4517,95 -68.4517,89 -74.4517,89 -74.4517,89 -167.548,89 -167.548,89 -173.548,89 -179.548,95 -179.548,101 -179.548,101 -179.548,167 -179.548,167 -179.548,173 -173.548,179 -167.548,179"/>
<text text-anchor="middle" x="-121" y="104.2" font-family="Times,serif" font-size="14.00">ReportsController</text>
<polyline fill="none" stroke="black" points="-179.548,111 -62.4517,111 "/>
<text text-anchor="start" x="-171.548" y="126.2" font-family="Times,serif" font-size="14.00">issues_per_repo</text>
<polyline fill="none" stroke="black" points="-179.548,133 -62.4517,133 "/>
<polyline fill="none" stroke="black" points="-179.548,157 -62.4517,157 "/>
<text text-anchor="start" x="-171.548" y="172.2" font-family="Times,serif" font-size="14.00">_layout</text>
</g>
<!-- RunsController -->
<g id="node7" class="node"><title>RunsController</title>
<path fill="none" stroke="black" d="M-18.1655,209C-18.1655,209 60.1655,209 60.1655,209 66.1655,209 72.1655,203 72.1655,197 72.1655,197 72.1655,103 72.1655,103 72.1655,97 66.1655,91 60.1655,91 60.1655,91 -18.1655,91 -18.1655,91 -24.1655,91 -30.1655,97 -30.1655,103 -30.1655,103 -30.1655,197 -30.1655,197 -30.1655,203 -24.1655,209 -18.1655,209"/>
<text text-anchor="middle" x="21" y="106.2" font-family="Times,serif" font-size="14.00">RunsController</text>
<polyline fill="none" stroke="black" points="-30.1655,113 72.1655,113 "/>
<text text-anchor="start" x="-22.1655" y="128.2" font-family="Times,serif" font-size="14.00">index</text>
<text text-anchor="start" x="-22.1655" y="142.2" font-family="Times,serif" font-size="14.00">run_params</text>
<text text-anchor="start" x="-22.1655" y="156.2" font-family="Times,serif" font-size="14.00">show</text>
<polyline fill="none" stroke="black" points="-30.1655,163 72.1655,163 "/>
<polyline fill="none" stroke="black" points="-30.1655,187 72.1655,187 "/>
<text text-anchor="start" x="-22.1655" y="202.2" font-family="Times,serif" font-size="14.00">_layout</text>
</g>
</g>
</svg>
