<?xml version="1.0" encoding="UTF-8" standalone="no"?>
<!DOCTYPE svg PUBLIC "-//W3C//DTD SVG 1.1//EN"
 "http://www.w3.org/Graphics/SVG/1.1/DTD/svg11.dtd">
<!-- Generated by graphviz version 2.38.0 (20140413.2041)
 -->
<!-- Title: models_diagram Pages: 1 -->
<svg width="904pt" height="513pt"
 viewBox="0.00 0.00 904.01 513.00" xmlns="http://www.w3.org/2000/svg" xmlns:xlink="http://www.w3.org/1999/xlink">
<g id="graph0" class="graph" transform="scale(1 1) rotate(0) translate(4 509)">
<title>models_diagram</title>
<polygon fill="none" stroke="none" points="-4,4 -4,-509 900.012,-509 900.012,4 -4,4"/>
<!-- _diagram_info -->
<g id="node1" class="node"><title>_diagram_info</title>
<text text-anchor="start" x="8" y="-490.6" font-family="Times,serif" font-size="13.00">Models diagram</text>
<text text-anchor="start" x="8" y="-477.6" font-family="Times,serif" font-size="13.00">Date: Apr 08 2016 &#45; 14:21</text>
<text text-anchor="start" x="8" y="-464.6" font-family="Times,serif" font-size="13.00">Migration version: 20160408181612</text>
<text text-anchor="start" x="8" y="-451.6" font-family="Times,serif" font-size="13.00">Generated by RailRoady 1.4.1</text>
<text text-anchor="start" x="8" y="-438.6" font-family="Times,serif" font-size="13.00">http://railroady.prestonlee.com</text>
</g>
<!-- Checker -->
<g id="node2" class="node"><title>Checker</title>
<polygon fill="none" stroke="black" points="287.83,-486.5 225.545,-486.5 225.545,-450.5 287.83,-450.5 287.83,-486.5"/>
<text text-anchor="middle" x="256.688" y="-464.3" font-family="Times,serif" font-size="14.00">Checker</text>
</g>
<!-- ConcreteIssue -->
<g id="node3" class="node"><title>ConcreteIssue</title>
<ellipse fill="none" stroke="black" cx="230.688" cy="-18" rx="60.4028" ry="18"/>
<text text-anchor="middle" x="230.688" y="-13.8" font-family="Times,serif" font-size="14.00">ConcreteIssue</text>
</g>
<!-- DigestedFile -->
<g id="node4" class="node"><title>DigestedFile</title>
<polygon fill="none" stroke="black" stroke-dasharray="1,5" points="509.234,-486.5 422.142,-486.5 422.142,-450.5 509.234,-450.5 509.234,-486.5"/>
<text text-anchor="middle" x="465.688" y="-464.3" font-family="Times,serif" font-size="14.00">DigestedFile</text>
</g>
<!-- FindingAid -->
<g id="node5" class="node"><title>FindingAid</title>
<ellipse fill="none" stroke="black" cx="354.688" cy="-378" rx="50.7828" ry="18"/>
<text text-anchor="middle" x="354.688" y="-373.8" font-family="Times,serif" font-size="14.00">FindingAid</text>
</g>
<!-- FindingAidVersion -->
<g id="node7" class="node"><title>FindingAidVersion</title>
<ellipse fill="none" stroke="black" cx="291.688" cy="-306" rx="77.8193" ry="18"/>
<text text-anchor="middle" x="291.688" y="-301.8" font-family="Times,serif" font-size="14.00">FindingAidVersion</text>
</g>
<!-- FindingAid&#45;&gt;FindingAidVersion -->
<g id="edge1" class="edge"><title>FindingAid&#45;&gt;FindingAidVersion</title>
<path fill="none" stroke="#0b4a09" d="M334.162,-354.194C327.657,-346.965 320.438,-338.944 313.824,-331.596"/>
<ellipse fill="none" stroke="#0b4a09" cx="337.082" cy="-357.438" rx="4.00002" ry="4.00002"/>
<polygon fill="#0b4a09" stroke="#0b4a09" points="313.638,-331.389 310.293,-320.946 310.293,-327.673 306.948,-323.956 306.948,-323.956 306.948,-323.956 310.293,-327.673 303.603,-326.967 313.638,-331.389 313.638,-331.389"/>
</g>
<!-- Run -->
<g id="node13" class="node"><title>Run</title>
<ellipse fill="none" stroke="black" cx="341.688" cy="-90" rx="27" ry="18"/>
<text text-anchor="middle" x="341.688" y="-85.8" font-family="Times,serif" font-size="14.00">Run</text>
</g>
<!-- FindingAid&#45;&gt;Run -->
<g id="edge2" class="edge"><title>FindingAid&#45;&gt;Run</title>
<path fill="none" stroke="#669488" d="M369.203,-350.799C373.076,-342.483 376.727,-333.084 378.688,-324 387.081,-285.12 397.622,-228.968 372.688,-144 369.703,-133.827 364.358,-123.56 358.938,-114.806"/>
<polygon fill="#669488" stroke="#669488" points="369.091,-351.023 360.612,-357.976 366.866,-355.501 364.642,-359.978 364.642,-359.978 364.642,-359.978 366.866,-355.501 368.672,-361.981 369.091,-351.023 369.091,-351.023"/>
<polygon fill="#669488" stroke="#669488" points="358.843,-114.661 357.121,-103.831 356.101,-110.48 353.358,-106.3 353.358,-106.3 353.358,-106.3 356.101,-110.48 349.595,-108.768 358.843,-114.661 358.843,-114.661"/>
</g>
<!-- FindingAidFile -->
<g id="node6" class="node"><title>FindingAidFile</title>
<polygon fill="none" stroke="black" points="630.033,-486.5 527.342,-486.5 527.342,-450.5 630.033,-450.5 630.033,-486.5"/>
<text text-anchor="middle" x="578.688" y="-464.3" font-family="Times,serif" font-size="14.00">FindingAidFile</text>
</g>
<!-- FindingAidVersion&#45;&gt;ConcreteIssue -->
<g id="edge4" class="edge"><title>FindingAidVersion&#45;&gt;ConcreteIssue</title>
<path fill="none" stroke="#a60591" d="M238.233,-287.819C221.449,-279.684 204.704,-268.112 194.688,-252 152.451,-184.057 168.627,-147.975 193.688,-72 197.01,-61.9291 202.921,-52.0714 209.057,-43.6417"/>
<ellipse fill="none" stroke="#a60591" cx="242.283" cy="-289.662" rx="4.00002" ry="4.00002"/>
<polygon fill="#a60591" stroke="#a60591" points="209.058,-43.6399 218.739,-38.488 212.12,-39.6864 215.181,-35.733 215.181,-35.733 215.181,-35.733 212.12,-39.6864 211.623,-32.978 209.058,-43.6399 209.058,-43.6399"/>
</g>
<!-- ProcessingEvent -->
<g id="node10" class="node"><title>ProcessingEvent</title>
<ellipse fill="none" stroke="black" cx="272.688" cy="-234" rx="69.1064" ry="18"/>
<text text-anchor="middle" x="272.688" y="-229.8" font-family="Times,serif" font-size="14.00">ProcessingEvent</text>
</g>
<!-- FindingAidVersion&#45;&gt;ProcessingEvent -->
<g id="edge5" class="edge"><title>FindingAidVersion&#45;&gt;ProcessingEvent</title>
<path fill="none" stroke="#6c9ee4" d="M284.88,-279.92C283.315,-274.154 281.644,-267.997 280.056,-262.148"/>
<ellipse fill="none" stroke="#6c9ee4" cx="285.943" cy="-283.836" rx="4.00001" ry="4.00001"/>
<polygon fill="#6c9ee4" stroke="#6c9ee4" points="279.95,-261.755 281.673,-250.926 278.64,-256.93 277.33,-252.104 277.33,-252.104 277.33,-252.104 278.64,-256.93 272.987,-253.283 279.95,-261.755 279.95,-261.755"/>
</g>
<!-- FindingAidVersion&#45;&gt;Run -->
<g id="edge3" class="edge"><title>FindingAidVersion&#45;&gt;Run</title>
<path fill="none" stroke="#295408" d="M325.874,-282.78C335.767,-274.429 345.334,-264.007 350.688,-252 370.235,-208.165 359.564,-150.833 350.382,-117.743"/>
<polygon fill="#295408" stroke="#295408" points="325.801,-282.837 315.161,-285.487 321.873,-285.93 317.944,-289.023 317.944,-289.023 317.944,-289.023 321.873,-285.93 320.728,-292.558 325.801,-282.837 325.801,-282.837"/>
<polygon fill="#295408" stroke="#295408" points="350.309,-117.494 351.811,-106.632 348.901,-112.697 347.494,-107.899 347.494,-107.899 347.494,-107.899 348.901,-112.697 343.176,-109.166 350.309,-117.494 350.309,-117.494"/>
</g>
<!-- Fixes -->
<g id="node8" class="node"><title>Fixes</title>
<polygon fill="none" stroke="black" points="701.688,-486.5 647.688,-486.5 647.688,-450.5 701.688,-450.5 701.688,-486.5"/>
<text text-anchor="middle" x="674.688" y="-464.3" font-family="Times,serif" font-size="14.00">Fixes</text>
</g>
<!-- Issue -->
<g id="node9" class="node"><title>Issue</title>
<ellipse fill="none" stroke="black" cx="230.688" cy="-90" rx="28.0651" ry="18"/>
<text text-anchor="middle" x="230.688" y="-85.8" font-family="Times,serif" font-size="14.00">Issue</text>
</g>
<!-- Issue&#45;&gt;ConcreteIssue -->
<g id="edge6" class="edge"><title>Issue&#45;&gt;ConcreteIssue</title>
<path fill="none" stroke="#a9d954" d="M230.688,-63.6398C230.688,-58.0629 230.688,-52.1319 230.688,-46.4761"/>
<ellipse fill="none" stroke="#a9d954" cx="230.688" cy="-67.6966" rx="4" ry="4"/>
<polygon fill="#a9d954" stroke="#a9d954" points="230.688,-46.1043 235.188,-36.1043 230.688,-41.1043 230.688,-36.1043 230.688,-36.1043 230.688,-36.1043 230.688,-41.1043 226.188,-36.1044 230.688,-46.1043 230.688,-46.1043"/>
</g>
<!-- Issue&#45;&gt;ProcessingEvent -->
<g id="edge7" class="edge"><title>Issue&#45;&gt;ProcessingEvent</title>
<path fill="none" stroke="#0d5303" d="M213.648,-113.211C201.718,-131.656 189.711,-158.29 200.688,-180 207.394,-193.264 219.157,-204.021 231.256,-212.29"/>
<ellipse fill="none" stroke="#0d5303" cx="216.087" cy="-109.635" rx="4.00002" ry="4.00002"/>
<polygon fill="#0d5303" stroke="#0d5303" points="231.613,-212.516 237.647,-221.672 235.835,-215.194 240.058,-217.872 240.058,-217.872 240.058,-217.872 235.835,-215.194 242.468,-214.072 231.613,-212.516 231.613,-212.516"/>
</g>
<!-- Schematron -->
<g id="node14" class="node"><title>Schematron</title>
<ellipse fill="none" stroke="black" cx="261.688" cy="-162" rx="52.1934" ry="18"/>
<text text-anchor="middle" x="261.688" y="-157.8" font-family="Times,serif" font-size="14.00">Schematron</text>
</g>
<!-- ProcessingEvent&#45;&gt;Schematron -->
<g id="edge8" class="edge"><title>ProcessingEvent&#45;&gt;Schematron</title>
<path fill="none" stroke="#d7bf62" d="M268.703,-207.64C267.714,-201.348 266.654,-194.605 265.666,-188.316"/>
<ellipse fill="none" stroke="#d7bf62" cx="269.348" cy="-211.745" rx="4.00001" ry="4.00001"/>
<ellipse fill="#d7bf62" stroke="#d7bf62" cx="264.997" cy="-184.056" rx="4.00001" ry="4.00001"/>
</g>
<!-- Report -->
<g id="node11" class="node"><title>Report</title>
<polygon fill="none" stroke="black" points="773.791,-486.5 719.584,-486.5 719.584,-450.5 773.791,-450.5 773.791,-486.5"/>
<text text-anchor="middle" x="746.688" y="-464.3" font-family="Times,serif" font-size="14.00">Report</text>
</g>
<!-- Repository -->
<g id="node12" class="node"><title>Repository</title>
<ellipse fill="none" stroke="black" cx="354.688" cy="-468.5" rx="48.8359" ry="18"/>
<text text-anchor="middle" x="354.688" y="-464.3" font-family="Times,serif" font-size="14.00">Repository</text>
</g>
<!-- Repository&#45;&gt;FindingAid -->
<g id="edge9" class="edge"><title>Repository&#45;&gt;FindingAid</title>
<path fill="none" stroke="#f69dcd" d="M354.688,-442.189C354.688,-430.971 354.688,-417.752 354.688,-406.311"/>
<ellipse fill="none" stroke="#f69dcd" cx="354.688" cy="-446.436" rx="4" ry="4"/>
<polygon fill="#f69dcd" stroke="#f69dcd" points="354.688,-406.011 359.188,-396.011 354.688,-401.011 354.688,-396.011 354.688,-396.011 354.688,-396.011 354.688,-401.011 350.188,-396.011 354.688,-406.011 354.688,-406.011"/>
</g>
<!-- Run&#45;&gt;ConcreteIssue -->
<g id="edge10" class="edge"><title>Run&#45;&gt;ConcreteIssue</title>
<path fill="none" stroke="#5c2e54" d="M315.695,-72.6082C300.321,-62.9129 280.688,-50.5316 264.164,-40.1109"/>
<ellipse fill="none" stroke="#5c2e54" cx="319.223" cy="-74.8329" rx="4.00002" ry="4.00002"/>
<polygon fill="#5c2e54" stroke="#5c2e54" points="263.809,-39.8872 257.751,-30.7466 259.579,-37.22 255.35,-34.5529 255.35,-34.5529 255.35,-34.5529 259.579,-37.22 252.95,-38.3593 263.809,-39.8872 263.809,-39.8872"/>
</g>
<!-- Run&#45;&gt;ProcessingEvent -->
<g id="edge11" class="edge"><title>Run&#45;&gt;ProcessingEvent</title>
<path fill="none" stroke="#02e7f8" d="M339.991,-115.986C337.891,-134.538 333.193,-159.982 322.688,-180 317.004,-190.829 308.483,-201.038 300.077,-209.55"/>
<ellipse fill="none" stroke="#02e7f8" cx="340.389" cy="-111.973" rx="4" ry="4"/>
<polygon fill="#02e7f8" stroke="#02e7f8" points="299.995,-209.629 289.672,-213.327 296.395,-213.098 292.794,-216.567 292.794,-216.567 292.794,-216.567 296.395,-213.098 295.916,-219.808 299.995,-209.629 299.995,-209.629"/>
</g>
<!-- Schematron&#45;&gt;Issue -->
<g id="edge12" class="edge"><title>Schematron&#45;&gt;Issue</title>
<path fill="none" stroke="#e141cb" d="M250.933,-136.714C248.159,-130.451 245.16,-123.68 242.343,-117.318"/>
<ellipse fill="none" stroke="#e141cb" cx="252.564" cy="-140.398" rx="4.00002" ry="4.00002"/>
<polygon fill="#e141cb" stroke="#e141cb" points="242.172,-116.933 242.237,-105.967 240.148,-112.361 238.123,-107.789 238.123,-107.789 238.123,-107.789 240.148,-112.361 234.008,-109.611 242.172,-116.933 242.172,-116.933"/>
</g>
<!-- Schematron&#45;&gt;Run -->
<g id="edge13" class="edge"><title>Schematron&#45;&gt;Run</title>
<path fill="none" stroke="#19f5dd" d="M285.986,-139.739C296.253,-130.755 308.16,-120.337 318.323,-111.444"/>
<ellipse fill="none" stroke="#19f5dd" cx="282.851" cy="-142.482" rx="4.00002" ry="4.00002"/>
<polygon fill="#19f5dd" stroke="#19f5dd" points="318.51,-111.28 328.999,-108.082 322.273,-107.988 326.036,-104.695 326.036,-104.695 326.036,-104.695 322.273,-107.988 323.073,-101.309 318.51,-111.28 318.51,-111.28"/>
</g>
<!-- SchematronFile -->
<g id="node15" class="node"><title>SchematronFile</title>
<polygon fill="none" stroke="black" points="895.837,-486.5 791.539,-486.5 791.539,-450.5 895.837,-450.5 895.837,-486.5"/>
<text text-anchor="middle" x="843.688" y="-464.3" font-family="Times,serif" font-size="14.00">SchematronFile</text>
</g>
</g>
</svg>
