<?xml version="1.0" encoding="UTF-8" standalone="no"?>
<!DOCTYPE svg PUBLIC "-//W3C//DTD SVG 1.1//EN"
 "http://www.w3.org/Graphics/SVG/1.1/DTD/svg11.dtd">
<!-- Generated by graphviz version 2.38.0 (20140413.2041)
 -->
<!-- Title: models_diagram Pages: 1 -->
<svg width="1054pt" height="1127pt"
 viewBox="0.00 0.00 1054.01 1127.00" xmlns="http://www.w3.org/2000/svg" xmlns:xlink="http://www.w3.org/1999/xlink">
<g id="graph0" class="graph" transform="scale(1 1) rotate(0) translate(4 1123)">
<title>models_diagram</title>
<polygon fill="none" stroke="none" points="-4,4 -4,-1123 1050.01,-1123 1050.01,4 -4,4"/>
<!-- _diagram_info -->
<g id="node1" class="node"><title>_diagram_info</title>
<text text-anchor="start" x="8" y="-1090.6" font-family="Times,serif" font-size="13.00">Models diagram</text>
<text text-anchor="start" x="8" y="-1077.6" font-family="Times,serif" font-size="13.00">Date: Apr 08 2016 &#45; 14:20</text>
<text text-anchor="start" x="8" y="-1064.6" font-family="Times,serif" font-size="13.00">Migration version: 20160408181612</text>
<text text-anchor="start" x="8" y="-1051.6" font-family="Times,serif" font-size="13.00">Generated by RailRoady 1.4.1</text>
<text text-anchor="start" x="8" y="-1038.6" font-family="Times,serif" font-size="13.00">http://railroady.prestonlee.com</text>
</g>
<!-- Checker -->
<g id="node2" class="node"><title>Checker</title>
<polygon fill="none" stroke="black" points="225.367,-1046.5 225.367,-1090.5 288.009,-1090.5 288.009,-1046.5 225.367,-1046.5"/>
<text text-anchor="middle" x="256.688" y="-1075.3" font-family="Times,serif" font-size="14.00">Checker</text>
<polyline fill="none" stroke="black" points="225.367,-1068.5 288.009,-1068.5 "/>
<text text-anchor="middle" x="256.688" y="-1053.3" font-family="Times,serif" font-size="14.00"> </text>
</g>
<!-- ConcreteIssue -->
<g id="node3" class="node"><title>ConcreteIssue</title>
<path fill="none" stroke="black" d="M95.8254,-0.5C95.8254,-0.5 319.55,-0.5 319.55,-0.5 325.55,-0.5 331.55,-6.5 331.55,-12.5 331.55,-12.5 331.55,-158.5 331.55,-158.5 331.55,-164.5 325.55,-170.5 319.55,-170.5 319.55,-170.5 95.8254,-170.5 95.8254,-170.5 89.8254,-170.5 83.8254,-164.5 83.8254,-158.5 83.8254,-158.5 83.8254,-12.5 83.8254,-12.5 83.8254,-6.5 89.8254,-0.5 95.8254,-0.5"/>
<text text-anchor="middle" x="207.688" y="-155.3" font-family="Times,serif" font-size="14.00">ConcreteIssue</text>
<polyline fill="none" stroke="black" points="83.8254,-148.5 331.55,-148.5 "/>
<text text-anchor="start" x="91.8254" y="-133.3" font-family="Times,serif" font-size="14.00">id :integer</text>
<text text-anchor="start" x="91.8254" y="-119.3" font-family="Times,serif" font-size="14.00">run_id :integer</text>
<text text-anchor="start" x="91.8254" y="-105.3" font-family="Times,serif" font-size="14.00">issue_id :integer</text>
<text text-anchor="start" x="91.8254" y="-91.3" font-family="Times,serif" font-size="14.00">location :text</text>
<text text-anchor="start" x="91.8254" y="-77.3" font-family="Times,serif" font-size="14.00">line_number :integer</text>
<text text-anchor="start" x="91.8254" y="-63.3" font-family="Times,serif" font-size="14.00">diagnostic_info :text</text>
<text text-anchor="start" x="91.8254" y="-49.3" font-family="Times,serif" font-size="14.00">created_at :timestamp without time zone</text>
<text text-anchor="start" x="91.8254" y="-35.3" font-family="Times,serif" font-size="14.00">updated_at :timestamp without time zone</text>
<text text-anchor="start" x="91.8254" y="-21.3" font-family="Times,serif" font-size="14.00">tags :jsonb</text>
<text text-anchor="start" x="91.8254" y="-7.3" font-family="Times,serif" font-size="14.00">finding_aid_version_id :integer</text>
</g>
<!-- DigestedFile -->
<g id="node4" class="node"><title>DigestedFile</title>
<polygon fill="none" stroke="black" stroke-dasharray="1,5" points="659.234,-1086.5 572.142,-1086.5 572.142,-1050.5 659.234,-1050.5 659.234,-1086.5"/>
<text text-anchor="middle" x="615.688" y="-1064.3" font-family="Times,serif" font-size="14.00">DigestedFile</text>
</g>
<!-- FindingAid -->
<g id="node5" class="node"><title>FindingAid</title>
<path fill="none" stroke="black" d="M317.825,-853.5C317.825,-853.5 541.55,-853.5 541.55,-853.5 547.55,-853.5 553.55,-859.5 553.55,-865.5 553.55,-865.5 553.55,-969.5 553.55,-969.5 553.55,-975.5 547.55,-981.5 541.55,-981.5 541.55,-981.5 317.825,-981.5 317.825,-981.5 311.825,-981.5 305.825,-975.5 305.825,-969.5 305.825,-969.5 305.825,-865.5 305.825,-865.5 305.825,-859.5 311.825,-853.5 317.825,-853.5"/>
<text text-anchor="middle" x="429.688" y="-966.3" font-family="Times,serif" font-size="14.00">FindingAid</text>
<polyline fill="none" stroke="black" points="305.825,-959.5 553.55,-959.5 "/>
<text text-anchor="start" x="313.825" y="-944.3" font-family="Times,serif" font-size="14.00">id :integer</text>
<text text-anchor="start" x="313.825" y="-930.3" font-family="Times,serif" font-size="14.00">repository_id :integer</text>
<text text-anchor="start" x="313.825" y="-916.3" font-family="Times,serif" font-size="14.00">eadid :character varying(255)</text>
<text text-anchor="start" x="313.825" y="-902.3" font-family="Times,serif" font-size="14.00">ext_id :character varying(255)</text>
<text text-anchor="start" x="313.825" y="-888.3" font-family="Times,serif" font-size="14.00">ext_id_type :character varying(255)</text>
<text text-anchor="start" x="313.825" y="-874.3" font-family="Times,serif" font-size="14.00">created_at :timestamp without time zone</text>
<text text-anchor="start" x="313.825" y="-860.3" font-family="Times,serif" font-size="14.00">updated_at :timestamp without time zone</text>
</g>
<!-- FindingAidVersion -->
<g id="node7" class="node"><title>FindingAidVersion</title>
<path fill="none" stroke="black" d="M227.825,-716.5C227.825,-716.5 451.55,-716.5 451.55,-716.5 457.55,-716.5 463.55,-722.5 463.55,-728.5 463.55,-728.5 463.55,-804.5 463.55,-804.5 463.55,-810.5 457.55,-816.5 451.55,-816.5 451.55,-816.5 227.825,-816.5 227.825,-816.5 221.825,-816.5 215.825,-810.5 215.825,-804.5 215.825,-804.5 215.825,-728.5 215.825,-728.5 215.825,-722.5 221.825,-716.5 227.825,-716.5"/>
<text text-anchor="middle" x="339.688" y="-801.3" font-family="Times,serif" font-size="14.00">FindingAidVersion</text>
<polyline fill="none" stroke="black" points="215.825,-794.5 463.55,-794.5 "/>
<text text-anchor="start" x="223.825" y="-779.3" font-family="Times,serif" font-size="14.00">id :integer</text>
<text text-anchor="start" x="223.825" y="-765.3" font-family="Times,serif" font-size="14.00">finding_aid_id :integer</text>
<text text-anchor="start" x="223.825" y="-751.3" font-family="Times,serif" font-size="14.00">digest :character varying(255)</text>
<text text-anchor="start" x="223.825" y="-737.3" font-family="Times,serif" font-size="14.00">created_at :timestamp without time zone</text>
<text text-anchor="start" x="223.825" y="-723.3" font-family="Times,serif" font-size="14.00">updated_at :timestamp without time zone</text>
</g>
<!-- FindingAid&#45;&gt;FindingAidVersion -->
<g id="edge1" class="edge"><title>FindingAid&#45;&gt;FindingAidVersion</title>
<path fill="none" stroke="#339dd7" d="M387.348,-846.405C383.096,-839.365 378.812,-832.273 374.649,-825.38"/>
<ellipse fill="none" stroke="#339dd7" cx="389.452" cy="-849.887" rx="4.00002" ry="4.00002"/>
<polygon fill="#339dd7" stroke="#339dd7" points="374.622,-825.335 373.303,-814.449 372.037,-821.055 369.451,-816.775 369.451,-816.775 369.451,-816.775 372.037,-821.055 365.6,-819.102 374.622,-825.335 374.622,-825.335"/>
</g>
<!-- Run -->
<g id="node13" class="node"><title>Run</title>
<path fill="none" stroke="black" d="M363.829,-221.5C363.829,-221.5 601.547,-221.5 601.547,-221.5 607.547,-221.5 613.547,-227.5 613.547,-233.5 613.547,-233.5 613.547,-365.5 613.547,-365.5 613.547,-371.5 607.547,-377.5 601.547,-377.5 601.547,-377.5 363.829,-377.5 363.829,-377.5 357.829,-377.5 351.829,-371.5 351.829,-365.5 351.829,-365.5 351.829,-233.5 351.829,-233.5 351.829,-227.5 357.829,-221.5 363.829,-221.5"/>
<text text-anchor="middle" x="482.688" y="-362.3" font-family="Times,serif" font-size="14.00">Run</text>
<polyline fill="none" stroke="black" points="351.829,-355.5 613.547,-355.5 "/>
<text text-anchor="start" x="359.829" y="-340.3" font-family="Times,serif" font-size="14.00">id :integer</text>
<text text-anchor="start" x="359.829" y="-326.3" font-family="Times,serif" font-size="14.00">schematron_id :integer</text>
<text text-anchor="start" x="359.829" y="-312.3" font-family="Times,serif" font-size="14.00">completed_at :timestamp without time zone</text>
<text text-anchor="start" x="359.829" y="-298.3" font-family="Times,serif" font-size="14.00">eads_processed :integer</text>
<text text-anchor="start" x="359.829" y="-284.3" font-family="Times,serif" font-size="14.00">run_for_processing :boolean</text>
<text text-anchor="start" x="359.829" y="-270.3" font-family="Times,serif" font-size="14.00">created_at :timestamp without time zone</text>
<text text-anchor="start" x="359.829" y="-256.3" font-family="Times,serif" font-size="14.00">updated_at :timestamp without time zone</text>
<text text-anchor="start" x="359.829" y="-242.3" font-family="Times,serif" font-size="14.00">name :character varying(255)</text>
<text text-anchor="start" x="359.829" y="-228.3" font-family="Times,serif" font-size="14.00">data :jsonb</text>
</g>
<!-- FindingAid&#45;&gt;Run -->
<g id="edge2" class="edge"><title>FindingAid&#45;&gt;Run</title>
<path fill="none" stroke="#7f249d" d="M464.052,-843.735C467.368,-834.864 470.357,-825.818 472.688,-817 517.022,-649.25 521.151,-600.819 505.688,-428 504.522,-414.968 502.698,-401.275 500.576,-387.894"/>
<polygon fill="#7f249d" stroke="#7f249d" points="463.968,-843.954 456.149,-851.643 462.155,-848.614 460.343,-853.274 460.343,-853.274 460.343,-853.274 462.155,-848.614 464.537,-854.905 463.968,-843.954 463.968,-843.954"/>
<polygon fill="#7f249d" stroke="#7f249d" points="500.528,-387.605 503.34,-377.006 499.714,-382.672 498.9,-377.739 498.9,-377.739 498.9,-377.739 499.714,-382.672 494.46,-378.471 500.528,-387.605 500.528,-387.605"/>
</g>
<!-- FindingAidFile -->
<g id="node6" class="node"><title>FindingAidFile</title>
<polygon fill="none" stroke="black" points="677.515,-1046.5 677.515,-1090.5 779.86,-1090.5 779.86,-1046.5 677.515,-1046.5"/>
<text text-anchor="middle" x="728.688" y="-1075.3" font-family="Times,serif" font-size="14.00">FindingAidFile</text>
<polyline fill="none" stroke="black" points="677.515,-1068.5 779.86,-1068.5 "/>
<text text-anchor="middle" x="728.688" y="-1053.3" font-family="Times,serif" font-size="14.00"> </text>
</g>
<!-- FindingAidVersion&#45;&gt;ConcreteIssue -->
<g id="edge4" class="edge"><title>FindingAidVersion&#45;&gt;ConcreteIssue</title>
<path fill="none" stroke="#65ef03" d="M215.147,-711.82C201.713,-702.562 189.151,-691.986 178.688,-680 88.9934,-577.246 96.6143,-526.279 72.6877,-392 58.2642,-311.053 39.0824,-282.041 72.6877,-207 77.1116,-197.122 82.7899,-187.719 89.3048,-178.844"/>
<ellipse fill="none" stroke="#65ef03" cx="218.478" cy="-714.04" rx="4.00002" ry="4.00002"/>
<polygon fill="#65ef03" stroke="#65ef03" points="89.3819,-178.745 99.0668,-173.602 92.4465,-174.794 95.5111,-170.844 95.5111,-170.844 95.5111,-170.844 92.4465,-174.794 91.9555,-168.085 89.3819,-178.745 89.3819,-178.745"/>
</g>
<!-- ProcessingEvent -->
<g id="node10" class="node"><title>ProcessingEvent</title>
<path fill="none" stroke="black" d="M199.825,-551.5C199.825,-551.5 423.55,-551.5 423.55,-551.5 429.55,-551.5 435.55,-557.5 435.55,-563.5 435.55,-563.5 435.55,-667.5 435.55,-667.5 435.55,-673.5 429.55,-679.5 423.55,-679.5 423.55,-679.5 199.825,-679.5 199.825,-679.5 193.825,-679.5 187.825,-673.5 187.825,-667.5 187.825,-667.5 187.825,-563.5 187.825,-563.5 187.825,-557.5 193.825,-551.5 199.825,-551.5"/>
<text text-anchor="middle" x="311.688" y="-664.3" font-family="Times,serif" font-size="14.00">ProcessingEvent</text>
<polyline fill="none" stroke="black" points="187.825,-657.5 435.55,-657.5 "/>
<text text-anchor="start" x="195.825" y="-642.3" font-family="Times,serif" font-size="14.00">id :integer</text>
<text text-anchor="start" x="195.825" y="-628.3" font-family="Times,serif" font-size="14.00">run_id :integer</text>
<text text-anchor="start" x="195.825" y="-614.3" font-family="Times,serif" font-size="14.00">finding_aid_version_id :integer</text>
<text text-anchor="start" x="195.825" y="-600.3" font-family="Times,serif" font-size="14.00">created_at :timestamp without time zone</text>
<text text-anchor="start" x="195.825" y="-586.3" font-family="Times,serif" font-size="14.00">updated_at :timestamp without time zone</text>
<text text-anchor="start" x="195.825" y="-572.3" font-family="Times,serif" font-size="14.00">issue_id :integer</text>
<text text-anchor="start" x="195.825" y="-558.3" font-family="Times,serif" font-size="14.00">failed :boolean</text>
</g>
<!-- FindingAidVersion&#45;&gt;ProcessingEvent -->
<g id="edge5" class="edge"><title>FindingAidVersion&#45;&gt;ProcessingEvent</title>
<path fill="none" stroke="#9264e5" d="M328.923,-708.218C327.801,-702.245 326.649,-696.115 325.499,-689.995"/>
<ellipse fill="none" stroke="#9264e5" cx="329.703" cy="-712.368" rx="4.00001" ry="4.00001"/>
<polygon fill="#9264e5" stroke="#9264e5" points="325.417,-689.56 327.993,-678.9 324.494,-684.646 323.57,-679.732 323.57,-679.732 323.57,-679.732 324.494,-684.646 319.148,-680.563 325.417,-689.56 325.417,-689.56"/>
</g>
<!-- FindingAidVersion&#45;&gt;Run -->
<g id="edge3" class="edge"><title>FindingAidVersion&#45;&gt;Run</title>
<path fill="none" stroke="#6eb295" d="M422.832,-709.228C431.372,-700.368 438.988,-690.594 444.688,-680 493.502,-589.271 497.016,-468.639 492.264,-387.97"/>
<polygon fill="#6eb295" stroke="#6eb295" points="422.604,-709.452 412.314,-713.241 419.034,-712.953 415.464,-716.454 415.464,-716.454 415.464,-716.454 419.034,-712.953 418.615,-719.667 422.604,-709.452 422.604,-709.452"/>
<polygon fill="#6eb295" stroke="#6eb295" points="492.254,-387.823 496.102,-377.555 491.933,-382.833 491.611,-377.844 491.611,-377.844 491.611,-377.844 491.933,-382.833 487.121,-378.133 492.254,-387.823 492.254,-387.823"/>
</g>
<!-- Fixes -->
<g id="node8" class="node"><title>Fixes</title>
<polygon fill="none" stroke="black" points="797.688,-1046.5 797.688,-1090.5 851.688,-1090.5 851.688,-1046.5 797.688,-1046.5"/>
<text text-anchor="middle" x="824.357" y="-1075.3" font-family="Times,serif" font-size="14.00">Fixes</text>
<polyline fill="none" stroke="black" points="797.688,-1068.5 851.026,-1068.5 "/>
<text text-anchor="middle" x="824.357" y="-1053.3" font-family="Times,serif" font-size="14.00"> </text>
</g>
<!-- Issue -->
<g id="node9" class="node"><title>Issue</title>
<path fill="none" stroke="black" d="M93.5183,-207.5C93.5183,-207.5 321.857,-207.5 321.857,-207.5 327.857,-207.5 333.857,-213.5 333.857,-219.5 333.857,-219.5 333.857,-379.5 333.857,-379.5 333.857,-385.5 327.857,-391.5 321.857,-391.5 321.857,-391.5 93.5183,-391.5 93.5183,-391.5 87.5183,-391.5 81.5183,-385.5 81.5183,-379.5 81.5183,-379.5 81.5183,-219.5 81.5183,-219.5 81.5183,-213.5 87.5183,-207.5 93.5183,-207.5"/>
<text text-anchor="middle" x="207.688" y="-376.3" font-family="Times,serif" font-size="14.00">Issue</text>
<polyline fill="none" stroke="black" points="81.5183,-369.5 333.857,-369.5 "/>
<text text-anchor="start" x="89.5183" y="-354.3" font-family="Times,serif" font-size="14.00">id :integer</text>
<text text-anchor="start" x="89.5183" y="-340.3" font-family="Times,serif" font-size="14.00">schematron_id :integer</text>
<text text-anchor="start" x="89.5183" y="-326.3" font-family="Times,serif" font-size="14.00">identifier :character varying(255)</text>
<text text-anchor="start" x="89.5183" y="-312.3" font-family="Times,serif" font-size="14.00">alternate_issue_id :character varying(255)</text>
<text text-anchor="start" x="89.5183" y="-298.3" font-family="Times,serif" font-size="14.00">rule_context :text</text>
<text text-anchor="start" x="89.5183" y="-284.3" font-family="Times,serif" font-size="14.00">message :text</text>
<text text-anchor="start" x="89.5183" y="-270.3" font-family="Times,serif" font-size="14.00">created_at :timestamp without time zone</text>
<text text-anchor="start" x="89.5183" y="-256.3" font-family="Times,serif" font-size="14.00">updated_at :timestamp without time zone</text>
<text text-anchor="start" x="89.5183" y="-242.3" font-family="Times,serif" font-size="14.00">rule_label :text</text>
<text text-anchor="start" x="89.5183" y="-228.3" font-family="Times,serif" font-size="14.00">manual :boolean</text>
<text text-anchor="start" x="89.5183" y="-214.3" font-family="Times,serif" font-size="14.00">test :text</text>
</g>
<!-- Issue&#45;&gt;ConcreteIssue -->
<g id="edge6" class="edge"><title>Issue&#45;&gt;ConcreteIssue</title>
<path fill="none" stroke="#923ddc" d="M207.688,-199.303C207.688,-193.138 207.688,-186.942 207.688,-180.799"/>
<ellipse fill="none" stroke="#923ddc" cx="207.688" cy="-203.363" rx="4" ry="4"/>
<polygon fill="#923ddc" stroke="#923ddc" points="207.688,-180.526 212.188,-170.526 207.688,-175.526 207.688,-170.526 207.688,-170.526 207.688,-170.526 207.688,-175.526 203.188,-170.526 207.688,-180.526 207.688,-180.526"/>
</g>
<!-- Issue&#45;&gt;ProcessingEvent -->
<g id="edge7" class="edge"><title>Issue&#45;&gt;ProcessingEvent</title>
<path fill="none" stroke="#d2334b" d="M157.41,-399.525C145.287,-437.31 140.628,-479.742 159.688,-515 165.43,-525.621 172.853,-535.291 181.327,-544.056"/>
<ellipse fill="none" stroke="#d2334b" cx="158.826" cy="-395.327" rx="4.00001" ry="4.00001"/>
<polygon fill="#d2334b" stroke="#d2334b" points="181.51,-544.234 185.54,-554.433 185.094,-547.721 188.678,-551.207 188.678,-551.207 188.678,-551.207 185.094,-547.721 191.816,-547.982 181.51,-544.234 181.51,-544.234"/>
</g>
<!-- Schematron -->
<g id="node14" class="node"><title>Schematron</title>
<path fill="none" stroke="black" d="M180.825,-428.5C180.825,-428.5 404.55,-428.5 404.55,-428.5 410.55,-428.5 416.55,-434.5 416.55,-440.5 416.55,-440.5 416.55,-502.5 416.55,-502.5 416.55,-508.5 410.55,-514.5 404.55,-514.5 404.55,-514.5 180.825,-514.5 180.825,-514.5 174.825,-514.5 168.825,-508.5 168.825,-502.5 168.825,-502.5 168.825,-440.5 168.825,-440.5 168.825,-434.5 174.825,-428.5 180.825,-428.5"/>
<text text-anchor="middle" x="292.688" y="-499.3" font-family="Times,serif" font-size="14.00">Schematron</text>
<polyline fill="none" stroke="black" points="168.825,-492.5 416.55,-492.5 "/>
<text text-anchor="start" x="176.825" y="-477.3" font-family="Times,serif" font-size="14.00">id :integer</text>
<text text-anchor="start" x="176.825" y="-463.3" font-family="Times,serif" font-size="14.00">digest :character varying(255)</text>
<text text-anchor="start" x="176.825" y="-449.3" font-family="Times,serif" font-size="14.00">created_at :timestamp without time zone</text>
<text text-anchor="start" x="176.825" y="-435.3" font-family="Times,serif" font-size="14.00">updated_at :timestamp without time zone</text>
</g>
<!-- ProcessingEvent&#45;&gt;Schematron -->
<g id="edge8" class="edge"><title>ProcessingEvent&#45;&gt;Schematron</title>
<path fill="none" stroke="#9d9c43" d="M302.147,-543.193C301.227,-536.319 300.308,-529.449 299.424,-522.841"/>
<ellipse fill="none" stroke="#9d9c43" cx="302.713" cy="-547.425" rx="4.00001" ry="4.00001"/>
<ellipse fill="#9d9c43" stroke="#9d9c43" cx="298.855" cy="-518.595" rx="4.00001" ry="4.00001"/>
</g>
<!-- Report -->
<g id="node11" class="node"><title>Report</title>
<polygon fill="none" stroke="black" points="869.636,-1046.5 869.636,-1090.5 923.74,-1090.5 923.74,-1046.5 869.636,-1046.5"/>
<text text-anchor="middle" x="896.688" y="-1075.3" font-family="Times,serif" font-size="14.00">Report</text>
<polyline fill="none" stroke="black" points="869.636,-1068.5 923.74,-1068.5 "/>
<text text-anchor="middle" x="896.688" y="-1053.3" font-family="Times,serif" font-size="14.00"> </text>
</g>
<!-- Repository -->
<g id="node12" class="node"><title>Repository</title>
<path fill="none" stroke="black" d="M317.825,-1018.5C317.825,-1018.5 541.55,-1018.5 541.55,-1018.5 547.55,-1018.5 553.55,-1024.5 553.55,-1030.5 553.55,-1030.5 553.55,-1106.5 553.55,-1106.5 553.55,-1112.5 547.55,-1118.5 541.55,-1118.5 541.55,-1118.5 317.825,-1118.5 317.825,-1118.5 311.825,-1118.5 305.825,-1112.5 305.825,-1106.5 305.825,-1106.5 305.825,-1030.5 305.825,-1030.5 305.825,-1024.5 311.825,-1018.5 317.825,-1018.5"/>
<text text-anchor="middle" x="429.688" y="-1103.3" font-family="Times,serif" font-size="14.00">Repository</text>
<polyline fill="none" stroke="black" points="305.825,-1096.5 553.55,-1096.5 "/>
<text text-anchor="start" x="313.825" y="-1081.3" font-family="Times,serif" font-size="14.00">id :integer</text>
<text text-anchor="start" x="313.825" y="-1067.3" font-family="Times,serif" font-size="14.00">code :character varying(255)</text>
<text text-anchor="start" x="313.825" y="-1053.3" font-family="Times,serif" font-size="14.00">name :character varying(255)</text>
<text text-anchor="start" x="313.825" y="-1039.3" font-family="Times,serif" font-size="14.00">created_at :timestamp without time zone</text>
<text text-anchor="start" x="313.825" y="-1025.3" font-family="Times,serif" font-size="14.00">updated_at :timestamp without time zone</text>
</g>
<!-- Repository&#45;&gt;FindingAid -->
<g id="edge9" class="edge"><title>Repository&#45;&gt;FindingAid</title>
<path fill="none" stroke="#a47ec6" d="M429.688,-1010.22C429.688,-1004.24 429.688,-998.115 429.688,-991.995"/>
<ellipse fill="none" stroke="#a47ec6" cx="429.688" cy="-1014.3" rx="4" ry="4"/>
<polygon fill="#a47ec6" stroke="#a47ec6" points="429.688,-991.732 434.188,-981.732 429.688,-986.732 429.688,-981.732 429.688,-981.732 429.688,-981.732 429.688,-986.732 425.188,-981.732 429.688,-991.732 429.688,-991.732"/>
</g>
<!-- Run&#45;&gt;ConcreteIssue -->
<g id="edge10" class="edge"><title>Run&#45;&gt;ConcreteIssue</title>
<path fill="none" stroke="#44fadb" d="M376.087,-216.32C359.419,-203.471 342.112,-190.129 325.216,-177.104"/>
<ellipse fill="none" stroke="#44fadb" cx="379.461" cy="-218.921" rx="4.00002" ry="4.00002"/>
<polygon fill="#44fadb" stroke="#44fadb" points="324.88,-176.844 319.707,-167.175 320.92,-173.792 316.96,-170.739 316.96,-170.739 316.96,-170.739 320.92,-173.792 314.212,-174.303 324.88,-176.844 324.88,-176.844"/>
</g>
<!-- Run&#45;&gt;ProcessingEvent -->
<g id="edge11" class="edge"><title>Run&#45;&gt;ProcessingEvent</title>
<path fill="none" stroke="#613394" d="M472.011,-385.512C463.944,-426.916 449.922,-476.04 425.688,-515 419.4,-525.108 411.767,-534.754 403.462,-543.787"/>
<ellipse fill="none" stroke="#613394" cx="472.758" cy="-381.539" rx="4.00001" ry="4.00001"/>
<polygon fill="#613394" stroke="#613394" points="403.256,-544.002 393.09,-548.115 399.799,-547.614 396.341,-551.226 396.341,-551.226 396.341,-551.226 399.799,-547.614 399.592,-554.338 403.256,-544.002 403.256,-544.002"/>
</g>
<!-- Schematron&#45;&gt;Issue -->
<g id="edge12" class="edge"><title>Schematron&#45;&gt;Issue</title>
<path fill="none" stroke="#251ee6" d="M268.012,-421.15C264.729,-414.583 261.273,-407.67 257.745,-400.614"/>
<ellipse fill="none" stroke="#251ee6" cx="269.888" cy="-424.9" rx="4.00002" ry="4.00002"/>
<polygon fill="#251ee6" stroke="#251ee6" points="257.717,-400.558 257.27,-389.601 255.481,-396.086 253.245,-391.614 253.245,-391.614 253.245,-391.614 255.481,-396.086 249.22,-393.626 257.717,-400.558 257.717,-400.558"/>
</g>
<!-- Schematron&#45;&gt;Run -->
<g id="edge13" class="edge"><title>Schematron&#45;&gt;Run</title>
<path fill="none" stroke="#d78751" d="M345.792,-422.985C359.145,-411.039 373.878,-397.856 388.582,-384.7"/>
<ellipse fill="none" stroke="#d78751" cx="342.635" cy="-425.81" rx="4.00002" ry="4.00002"/>
<polygon fill="#d78751" stroke="#d78751" points="388.809,-384.496 399.262,-381.182 392.536,-381.162 396.262,-377.828 396.262,-377.828 396.262,-377.828 392.536,-381.162 393.261,-374.475 388.809,-384.496 388.809,-384.496"/>
</g>
<!-- SchematronFile -->
<g id="node15" class="node"><title>SchematronFile</title>
<polygon fill="none" stroke="black" points="941.364,-1046.5 941.364,-1090.5 1046.01,-1090.5 1046.01,-1046.5 941.364,-1046.5"/>
<text text-anchor="middle" x="993.688" y="-1075.3" font-family="Times,serif" font-size="14.00">SchematronFile</text>
<polyline fill="none" stroke="black" points="941.364,-1068.5 1046.01,-1068.5 "/>
<text text-anchor="middle" x="993.688" y="-1053.3" font-family="Times,serif" font-size="14.00"> </text>
</g>
</g>
</svg>
